HIERARCHY
ROOT joint_Root
{
	OFFSET 0.0 0.0 0.0
	CHANNELS 6 Xposition Yposition Zposition Zrotation Xrotation Yrotation 
	JOINT Hips
	{
		OFFSET -17.1583 93.1646 452.98
		CHANNELS 6 Xposition Yposition Zposition Zrotation Xrotation Yrotation 
		JOINT Spine
		{
			OFFSET 15.7357 0.0 0.0
			CHANNELS 6 Xposition Yposition Zposition Zrotation Xrotation Yrotation 
			JOINT Chest
			{
				OFFSET 8.98455 -0.406207 0.0
				CHANNELS 6 Xposition Yposition Zposition Zrotation Xrotation Yrotation 
				JOINT Neck
				{
					OFFSET 16.3773 0.0 0.0
					CHANNELS 6 Xposition Yposition Zposition Zrotation Xrotation Yrotation 
					JOINT Head
					{
						OFFSET 6.45672 0.0 0.0
						CHANNELS 6 Xposition Yposition Zposition Zrotation Xrotation Yrotation 
						End Site
						{
							OFFSET 0.0 0.0 0.0
						}
					}
				}
				JOINT Shoulder_L
				{
					OFFSET 12.9942 -0.242716 4.98039
					CHANNELS 6 Xposition Yposition Zposition Zrotation Xrotation Yrotation 
					JOINT UpperArm_L
					{
						OFFSET 5.34809 0.0 0.0
						CHANNELS 6 Xposition Yposition Zposition Zrotation Xrotation Yrotation 
						JOINT LowerArm_L
						{
							OFFSET 24.3286 1.87007e-05 0.0
							CHANNELS 6 Xposition Yposition Zposition Zrotation Xrotation Yrotation 
							JOINT Hand_L
							{
								OFFSET 22.2916 0.0 0.0
								CHANNELS 6 Xposition Yposition Zposition Zrotation Xrotation Yrotation 
								End Site
								{
									OFFSET 0.0 0.0 0.0
								}
							}
						}
					}
				}
				JOINT Shoulder_R
				{
					OFFSET 12.9945 -0.242716 -4.98039
					CHANNELS 6 Xposition Yposition Zposition Zrotation Xrotation Yrotation 
					JOINT UpperArm_R
					{
						OFFSET -5.34813 0.0 0.0
						CHANNELS 6 Xposition Yposition Zposition Zrotation Xrotation Yrotation 
						JOINT LowerArm_R
						{
							OFFSET -24.3289 0.000322201 0.0
							CHANNELS 6 Xposition Yposition Zposition Zrotation Xrotation Yrotation 
							JOINT Hand_R
							{
								OFFSET -22.2915 -0.000108084 0.0
								CHANNELS 6 Xposition Yposition Zposition Zrotation Xrotation Yrotation 
								End Site
								{
									OFFSET 0.0 0.0 0.0
								}
							}
						}
					}
				}
			}
		}
		JOINT UpperLeg_L
		{
			OFFSET -2.19248 -6.46944 0.0
			CHANNELS 6 Xposition Yposition Zposition Zrotation Xrotation Yrotation 
			JOINT LowerLeg_L
			{
				OFFSET 39.0811 0.0 -1.23785e-05
				CHANNELS 6 Xposition Yposition Zposition Zrotation Xrotation Yrotation 
				JOINT Foot_L
				{
					OFFSET 40.9854 0.0 -1.26872e-05
					CHANNELS 6 Xposition Yposition Zposition Zrotation Xrotation Yrotation 
					JOINT Toes_L
					{
						OFFSET 11.7543 0.0 0.0
						CHANNELS 6 Xposition Yposition Zposition Zrotation Xrotation Yrotation 
						End Site
						{
							OFFSET 0.0 0.0 0.0
						}
					}
				}
			}
		}
		JOINT UpperLeg_R
		{
			OFFSET -2.19251 6.46944 0.0
			CHANNELS 6 Xposition Yposition Zposition Zrotation Xrotation Yrotation 
			JOINT LowerLeg_R
			{
				OFFSET -39.0811 -0.00228153 -0.0401928
				CHANNELS 6 Xposition Yposition Zposition Zrotation Xrotation Yrotation 
				JOINT Foot_R
				{
					OFFSET -40.9854 0.0 0.0
					CHANNELS 6 Xposition Yposition Zposition Zrotation Xrotation Yrotation 
					JOINT Toes_R
					{
						OFFSET -11.7543 0.0 0.0
						CHANNELS 6 Xposition Yposition Zposition Zrotation Xrotation Yrotation 
						End Site
						{
							OFFSET 0.0 0.0 0.0
						}
					}
				}
			}
		}
	}
}
MOTION
Frames:	4
Frame Time:	0.0333333
0.000000 0.000000 0.000000 0.000000 0.000000 -0.000000 -4.320950 93.147000 2.213330 89.039000 4.143090 -1.309870 15.735700 0.000005 -0.000001 58.290900 87.873600 -48.285700 8.984550 -0.406207 -0.000000 -3.788670 -3.238000 19.917200 16.377300 -0.000001 -0.000001 6.774680 5.163150 8.293740 6.456720 -0.000001 -0.000000 -4.122900 5.390400 14.826900 12.994200 -0.242716 4.980390 -86.736600 -6.177810 -62.083300 5.348090 -0.000007 -0.000001 -31.403700 -57.766000 -72.270400 24.328600 0.000019 0.000005 0.708422 32.645000 -1.313010 22.291600 -0.000001 0.000005 42.196000 4.432860 17.696200 12.994500 -0.242716 -4.980390 89.365500 2.107680 -73.243200 -5.348130 -0.000001 -0.000004 -59.908400 2.933820 -6.390830 -24.328900 0.000322 -0.000009 1.532490 5.818200 -14.793600 -22.291500 -0.000108 -0.000004 6.749620 5.224280 2.102970 -2.192480 -6.469440 -0.000000 -170.504000 -10.394100 1.812000 39.081100 -0.000007 -0.000012 -0.007635 0.064090 6.792800 40.985400 -0.000006 -0.000013 -10.025100 21.231700 -61.917600 11.754300 -0.000000 0.000003 -0.000737 0.179222 -9.306930 -2.192510 6.469440 -0.000001 179.710000 7.348020 -179.248000 -39.081100 -0.002282 -0.040193 0.034156 -0.155890 11.183100 -40.985400 0.000008 0.000006 -2.540310 2.201230 -69.024500 -11.754300 -0.000006 -0.000006 -0.012753 0.290838 -4.751290
0.000000 0.000000 0.000000 0.000000 0.000000 -0.000000 -4.346330 93.147600 2.204030 89.018000 4.141320 -1.361520 15.735700 0.000005 -0.000001 58.419300 87.874000 -48.403700 8.984550 -0.406207 -0.000000 -3.784590 -3.230130 19.938300 16.377300 -0.000001 -0.000001 6.782360 5.172180 8.278050 6.456720 -0.000001 -0.000000 -4.070930 5.402210 14.798500 12.994200 -0.242716 4.980390 -86.740300 -6.173420 -62.093300 5.348090 -0.000007 -0.000001 -31.596900 -57.873000 -72.402400 24.328600 0.000019 0.000005 0.708721 32.517600 -1.318140 22.291600 -0.000001 0.000005 42.181000 4.428150 17.772100 12.994500 -0.242716 -4.980390 89.379200 2.061850 -73.238800 -5.348130 -0.000001 -0.000004 -59.971500 3.042410 -6.455650 -24.328900 0.000322 -0.000009 1.512080 5.761720 -14.741600 -22.291500 -0.000108 -0.000004 6.735960 5.224020 2.109590 -2.192480 -6.469440 -0.000000 -170.476000 -10.431400 1.763860 39.081100 -0.000007 -0.000012 -0.007399 0.062374 6.763890 40.985400 -0.000006 -0.000013 -9.974620 21.246200 -61.917700 11.754300 -0.000000 0.000003 -0.000917 0.181849 -9.200190 -2.192510 6.469440 -0.000001 179.767000 7.336990 -179.304000 -39.081100 -0.002282 -0.040193 0.034306 -0.157148 11.148400 -40.985400 0.000008 0.000006 -2.446900 2.184740 -68.976000 -11.754300 -0.000006 -0.000006 -0.012491 0.289062 -4.824070
0.000000 0.000000 0.000000 0.000000 0.000000 -0.000000 -4.376570 93.158000 2.180910 89.005400 4.150850 -1.382570 15.735700 0.000005 -0.000001 58.530600 87.871400 -48.505900 8.984550 -0.406207 -0.000000 -3.775840 -3.225920 19.956700 16.377300 -0.000001 -0.000001 6.864670 5.185600 8.266570 6.456720 -0.000001 -0.000000 -4.051490 5.377990 14.786000 12.994200 -0.242716 4.980390 -86.750600 -6.143210 -62.052700 5.348090 -0.000007 -0.000001 -31.657400 -57.913800 -72.534900 24.328600 0.000019 0.000005 0.703454 32.476700 -1.309810 22.291600 -0.000001 0.000005 41.991100 4.423550 17.846100 12.994500 -0.242716 -4.980390 89.381900 2.054670 -73.254100 -5.348130 -0.000001 -0.000004 -59.988200 3.104140 -6.447050 -24.328900 0.000322 -0.000009 1.519070 5.753340 -14.827200 -22.291500 -0.000108 -0.000004 6.725650 5.222870 2.139260 -2.192480 -6.469440 -0.000000 -170.437000 -10.444700 1.845480 39.081100 -0.000007 -0.000012 -0.006728 0.058907 6.515120 40.985400 -0.000006 -0.000013 -10.162200 21.247600 -61.701000 11.754300 -0.000000 0.000003 -0.000755 0.179493 -9.295940 -2.192510 6.469440 -0.000001 179.791000 7.281620 -179.315000 -39.081100 -0.002282 -0.040193 0.032970 -0.151041 11.100100 -40.985400 0.000008 0.000006 -2.602400 2.162100 -68.947200 -11.754300 -0.000006 -0.000006 -0.012781 0.291027 -4.743540
0.000000 0.000000 0.000000 0.000000 0.000000 -0.000000 -4.397500 93.169800 2.165270 89.025000 4.179340 -1.413110 15.735700 0.000005 -0.000001 58.630000 87.868400 -48.608300 8.984550 -0.406207 -0.000000 -3.767280 -3.221750 19.951200 16.377300 -0.000001 -0.000001 6.924130 5.195190 8.321180 6.456720 -0.000001 -0.000000 -4.067860 5.393270 14.737900 12.994200 -0.242716 4.980390 -86.742500 -6.156740 -62.045900 5.348090 -0.000007 -0.000001 -31.563500 -57.960700 -72.445500 24.328600 0.000019 0.000005 0.709972 32.354400 -1.326390 22.291600 -0.000001 0.000005 42.040500 4.437480 17.621600 12.994500 -0.242716 -4.980390 89.374000 2.082690 -73.266600 -5.348130 -0.000001 -0.000004 -59.998800 3.086850 -6.428100 -24.328900 0.000322 -0.000009 1.514300 5.692150 -14.934100 -22.291500 -0.000108 -0.000004 6.776090 5.224990 2.084760 -2.192480 -6.469440 -0.000000 -170.429000 -10.411200 1.945030 39.081100 -0.000007 -0.000012 -0.006107 0.056228 6.198060 40.985400 -0.000006 -0.000013 -10.534900 21.240600 -61.363800 11.754300 -0.000000 0.000003 -0.000795 0.180071 -9.272440 -2.192510 6.469440 -0.000001 179.781000 7.422930 -179.303000 -39.081100 -0.002282 -0.040193 0.031691 -0.146046 10.987100 -40.985400 0.000008 0.000006 -2.576340 2.245250 -68.843000 -11.754300 -0.000006 -0.000006 -0.012724 0.290646 -4.759190
